<svg width="800" height="520" viewBox="0 0 800 520" fill="none" xmlns="http://www.w3.org/2000/svg">
  <rect width="800" height="520" rx="28" fill="#08111D"/>
  <circle cx="132" cy="404" r="122" fill="#A855F7" fill-opacity="0.12"/>
  <rect x="56" y="58" width="688" height="404" rx="30" fill="#0F172A" stroke="#334155"/>
  <rect x="96" y="104" width="180" height="112" rx="24" fill="#1D4ED8"/>
  <rect x="306" y="104" width="180" height="112" rx="24" fill="#059669"/>
  <rect x="516" y="104" width="180" height="112" rx="24" fill="#F59E0B"/>
  <rect x="96" y="252" width="600" height="160" rx="24" fill="#111827"/>
  <path d="M144 354C190 280 226 316 272 248C318 180 352 302 398 278C444 254 480 200 526 198C572 196 608 282 650 226" stroke="#38BDF8" stroke-width="12" stroke-linecap="round"/>
  <text x="96" y="448" fill="#E2E8F0" font-family="Space Grotesk, Arial" font-size="38" font-weight="700">Student Performance Dashboard</text>
</svg>

